<?xml version="1.0" encoding="UTF-8"?>
<svg data-bbox="0.906 0.92 131.91 42.531" xmlns="http://www.w3.org/2000/svg" viewBox="0 0 133 44" height="44" width="133" data-type="color">
    <g>
        <path fill="#8D9091" d="M65.937 27.476c-1.818 0-3.651.045-6.07.12L59.942.935h12.08v4.328c-2.72-.015-4.162-.015-6.972-.015h-.21v6.328h.21c2.12 0 3.201 0 5.26.014v4.329c-2.059-.03-3.126-.03-5.26-.03h-.21v7.274h.21c2.855 0 4.283 0 7.063.09v4.343c-2.465-.09-4.313-.12-6.176-.12M86.763 5.474c1.607.03 2.479.045 4.146.09h.21v.21l.226 23.49c1.954.271 3.005.437 4.929.752L96.018 5.7h.226c1.667.06 2.539.09 4.132.135l-.045-4.899H86.732l.046 4.524zM73.6 27.657A2998 2998 0 0 0 78.393.935h5.92a5251 5251 0 0 1 5.154 28.074c-1.878-.24-2.9-.36-4.808-.556l-.857-6.072h-.165a194 194 0 0 0-4.237-.3h-.195l-.03.18c-.3 2.27-.451 3.442-.737 5.651-1.908-.135-2.93-.18-4.838-.27m6.296-9.935h.24l2.66.15h.27L81.413 7.624l-.195 1.352c-.51 3.412-.766 5.11-1.277 8.507l-.03.225zM114.41 33.97l-.046-5.44a184 184 0 0 0-6.971-1.444l-.166-.03-.09-8.476.241.03c2.103.27 3.17.42 5.183.721l-.045-5.365a397 397 0 0 0-5.244-.51h-.195l-.075-7.365h.225c2.795.105 4.222.165 6.942.285L114.124.92h-12.08l.33 30.193c4.838.977 7.287 1.548 12.036 2.84m6.671-12.098-.256-.045.091 14.037c-1.879-.586-2.9-.886-4.839-1.427l-.27-33.5h6.506c5.334 0 7.813 3.622 7.813 11.407 0 6.012-1.577 8.176-2.915 8.942l-.135.075.03.15c.812 4.284 1.337 7.245 1.969 10.686.375 2.06.781 4.284 1.292 7.049-1.863-.691-2.9-1.067-4.854-1.728-.405-2.3-.721-4.163-1.006-5.892-.511-3.036-.947-5.65-1.668-9.393l-.03-.165h-.165c-.421-.045-.977-.12-1.563-.21m1.067-5.336c.24.03.511.06.766.06.496 0 .992-.105 1.382-.436.692-.6.992-1.908.977-4.328-.015-4.343-1.022-5.17-3.125-5.275l-1.398-.075.06 9.874 1.353.18zm-90.68 14.233c4.808-.917 7.273-1.293 12.141-1.894l.045-4.554c-2.735.27-4.162.436-6.957.812l-.24.03.075-7.876h.195c2.119-.21 3.186-.3 5.274-.465l.045-4.6a355 355 0 0 0-5.229.301h-.225l.075-6.838h.21c2.795-.09 4.238-.12 6.972-.18L43.895.92H31.829l-.316 29.803zm13.974-2.104c1.938-.226 2.99-.316 4.959-.481l.075-11.873h.195a176 176 0 0 1 5.5-.226v-4.358c-2.104.045-3.246.075-5.44.15h-.225l.045-6.462h.21c3.005-.046 4.553-.06 7.498-.09V.95H45.682l-.24 27.699zM17.63 33.909c4.748-1.278 7.197-1.864 12.035-2.826l.06-4.944c-2.72.45-4.132.706-6.911 1.247l-.256.045.09-8.597.18-.03c2.12-.285 3.186-.42 5.245-.676l.06-5.004c-2.029.165-3.11.27-5.2.465h-.24l.075-7.439h.196c2.795-.12 4.237-.18 6.972-.27L29.98.935H17.9l-.286 32.974zM12.882 17.06l-.21.195.255.15c2.148 1.233 3.125 3.488 3.095 7.14-.045 6.327-2.705 10.52-7.663 12.143a160 160 0 0 0-7.453 2.6V.935H8.15c2.284 0 4.057.631 5.289 1.864 1.472 1.487 2.208 3.892 2.178 7.153-.03 2.931-1.036 5.576-2.72 7.11m-6.867-1.43 1.503-.195c1.788-.226 2.9-1.924 2.914-4.404 0-1.893-.33-3.156-1.036-3.832-.586-.571-1.307-.601-1.788-.571l-1.548.09-.03 8.912zm4.853 9.86c0-2.03-.345-3.277-1.112-3.908-.586-.496-1.412-.631-2.524-.421L6 21.404l-.03 10.31.27-.075c.601-.165.902-.255 1.518-.42 2.209-.602 3.11-2.27 3.125-5.727" data-color="1"/>
        <path fill="#8D9091" d="M22.393 37.77c0-.074.06-.15.15-.15h.977c.09 0 .15.076.15.15v4.39h1.953c.09 0 .15.075.15.15v.901a.15.15 0 0 1-.15.15h-3.095a.15.15 0 0 1-.15-.15v-5.44z" data-color="1"/>
        <path fill="#8D9091" d="M30.311 37.53a2.957 2.957 0 0 1 2.96 2.961 2.934 2.934 0 0 1-2.96 2.946 2.92 2.92 0 0 1-2.945-2.946 2.944 2.944 0 0 1 2.945-2.96m0 4.6c.902 0 1.638-.737 1.638-1.639s-.736-1.653-1.638-1.653-1.637.751-1.637 1.653.736 1.638 1.637 1.638" data-color="1"/>
        <path fill="#8D9091" d="M35.48 37.68c0-.075.075-.15.15-.15h.21l3.276 3.156v-2.915c0-.09.06-.15.15-.15h.992c.075 0 .15.075.15.15v5.53a.15.15 0 0 1-.15.15h-.135s-.09-.03-.105-.044l-3.246-3.262v3.066a.15.15 0 0 1-.15.15h-.977a.15.15 0 0 1-.15-.15v-5.53z" data-color="1"/>
        <path fill="#8D9091" d="M43.068 37.77c0-.09.06-.15.15-.15h1.999c1.577 0 2.885 1.293 2.885 2.871a2.896 2.896 0 0 1-2.885 2.886h-1.999a.16.16 0 0 1-.15-.15zm2.074 4.374c.931 0 1.607-.736 1.607-1.668s-.676-1.653-1.607-1.653h-.782v3.321z" data-color="1"/>
        <path fill="#8D9091" d="M52.865 37.53a2.957 2.957 0 0 1 2.96 2.961 2.934 2.934 0 0 1-2.96 2.946 2.92 2.92 0 0 1-2.945-2.946 2.944 2.944 0 0 1 2.945-2.96m0 4.6c.901 0 1.637-.737 1.637-1.639s-.736-1.653-1.637-1.653c-.902 0-1.638.751-1.638 1.653s.736 1.638 1.638 1.638" data-color="1"/>
        <path fill="#8D9091" d="M58.049 37.68c0-.075.075-.15.15-.15h.21l3.276 3.156v-2.915c0-.09.06-.15.15-.15h.992c.075 0 .15.075.15.15v5.53a.15.15 0 0 1-.15.15h-.136s-.09-.03-.105-.044l-3.245-3.262v3.066a.15.15 0 0 1-.15.15h-.977a.15.15 0 0 1-.15-.15v-5.53z" data-color="1"/>
        <path fill="#8D9091" d="M68.672 37.77c0-.09.06-.15.15-.15h1.998c1.578 0 2.885 1.293 2.885 2.871a2.896 2.896 0 0 1-2.885 2.886h-1.998a.16.16 0 0 1-.15-.15zm2.073 4.374c.932 0 1.608-.736 1.608-1.668s-.676-1.653-1.608-1.653h-.781v3.321z" data-color="1"/>
        <path fill="#8D9091" d="M75.944 37.77c0-.074.06-.15.15-.15h2.45a1.78 1.78 0 0 1 1.788 1.774c0 .752-.496 1.368-1.218 1.653l1.127 2.09c.06.105 0 .24-.135.24H79.01s-.12-.045-.135-.075l-1.097-2.18h-.57v2.09a.15.15 0 0 1-.151.15h-.977a.15.15 0 0 1-.15-.15V37.77zm2.51 2.3c.33 0 .63-.315.63-.66a.635.635 0 0 0-.63-.632h-1.218v1.277h1.217z" data-color="1"/>
        <path fill="#8D9091" d="m83.712 40.597-1.818-2.75c-.06-.106 0-.241.135-.241h1.067s.105.045.135.075l1.142 1.683 1.142-1.683s.06-.075.136-.075h1.066c.136 0 .196.135.136.24l-1.834 2.736v2.615c0 .075-.075.15-.15.15h-.976a.15.15 0 0 1-.15-.15v-2.615z" data-color="1"/>
        <path fill="#8D9091" d="M94.305 37.53c.691 0 1.443.286 1.999.767.075.06.075.15.015.226l-.646.69s-.15.061-.226 0c-.315-.285-.676-.39-1.082-.39-.901 0-1.622.752-1.622 1.653 0 .902.736 1.639 1.622 1.639.24 0 .481-.03.737-.136v-.48h-.511c-.09 0-.15-.06-.15-.151v-.812c0-.09.06-.15.15-.15h1.653c.075 0 .15.075.15.15v2.21s-.03.105-.06.135c0 0-.842.541-2.044.541a2.92 2.92 0 0 1-2.945-2.946 2.934 2.934 0 0 1 2.945-2.96" data-color="1"/>
        <path fill="#8D9091" d="M99.91 37.606h-.992a.15.15 0 0 0-.15.15v5.456c0 .083.067.15.15.15h.992a.15.15 0 0 0 .15-.15v-5.456a.15.15 0 0 0-.15-.15" data-color="1"/>
        <path fill="#8D9091" d="M102.705 37.68c0-.075.075-.15.15-.15h.21l3.276 3.156v-2.915c0-.09.06-.15.15-.15h.992c.075 0 .15.075.15.15v5.53a.15.15 0 0 1-.15.15h-.135s-.091-.03-.106-.044l-3.245-3.262v3.066a.15.15 0 0 1-.15.15h-.977a.15.15 0 0 1-.15-.15v-5.53z" data-color="1"/>
        <path fill="#8D9091" d="M131.013 3.76h.345c.226 0 .361-.045.361-.27 0-.196-.18-.256-.361-.256h-.345v.541zm-.286-.766h.676c.406 0 .616.165.616.495 0 .286-.18.496-.465.496l.511.782h-.301l-.496-.782h-.24v.782h-.286V2.994zm.571 2.179c.691 0 1.217-.556 1.217-1.293s-.526-1.292-1.217-1.292-1.232.556-1.232 1.292c0 .737.526 1.293 1.232 1.293m0-2.81c.842 0 1.518.676 1.518 1.517 0 .842-.676 1.518-1.518 1.518a1.513 1.513 0 0 1-1.517-1.518c0-.841.676-1.518 1.517-1.518" data-color="1"/>
    </g>
</svg>
