<?xml version="1.0" encoding="UTF-8"?>
<svg data-bbox="0.639 0.095 96.434 24.183" xmlns="http://www.w3.org/2000/svg" viewBox="0 0 98 25" height="25" width="98" data-type="color">
    <g>
        <path fill="#8D9091" d="M33.335 9.353a2.84 2.84 0 0 1 2.84 2.84 2.85 2.85 0 0 1-2.855 2.841h-3.862a2.84 2.84 0 0 1-2.84-2.84 2.85 2.85 0 0 1 2.855-2.841z" clip-rule="evenodd" fill-rule="evenodd" data-color="1"/>
        <path fill="#8D9091" d="M71.65 21.436a2.85 2.85 0 0 1-2.855 2.84 2.83 2.83 0 0 1-2.84-2.84V2.95a2.84 2.84 0 0 1 2.84-2.84 2.86 2.86 0 0 1 2.855 2.84v18.501z" clip-rule="evenodd" fill-rule="evenodd" data-color="1"/>
        <path fill="#8D9091" d="M90.973 1.688a2.83 2.83 0 0 1 1.457 2.48 2.85 2.85 0 0 1-2.84 2.84 2.83 2.83 0 0 1-1.502-.42 6.33 6.33 0 0 0-3.125-.812 6.397 6.397 0 0 0-6.401 6.403 6.407 6.407 0 0 0 6.4 6.402 6.37 6.37 0 0 0 5.74-3.562h-5.74c-1.562 0-2.854-1.277-2.854-2.84a2.85 2.85 0 0 1 2.855-2.84h9.255a2.85 2.85 0 0 1 2.855 2.84c0 6.687-5.424 12.098-12.11 12.098-6.687 0-12.111-5.41-12.111-12.098S78.276.095 84.962.095c2.194 0 4.238.586 6.026 1.593z" clip-rule="evenodd" fill-rule="evenodd" data-color="1"/>
        <path fill="#8D9091" d="M19.136 1.914a2.83 2.83 0 0 1 1.382 2.45 2.84 2.84 0 0 1-2.855 2.84c-.57 0-1.082-.18-1.532-.466a6.4 6.4 0 0 0-3.366-.947c-3.546 0-6.416 2.87-6.416 6.403 0 3.531 2.87 6.402 6.416 6.402a6.38 6.38 0 0 0 6.13-4.524L22.486 2.32a2.87 2.87 0 0 1 2.72-1.984H36.13a2.84 2.84 0 0 1 2.84 2.84 2.847 2.847 0 0 1-2.84 2.84h-7.95c-.526 0-.962.331-1.127.797l-2.72 8.867c-1.502 4.975-6.13 8.597-11.584 8.597-6.687 0-12.11-5.41-12.11-12.098S6.062.095 12.75.095c2.344 0 4.522.661 6.37 1.819" clip-rule="evenodd" fill-rule="evenodd" data-color="1"/>
        <path fill="#8D9091" d="m35.724 17.514 4.703-15.36A2.844 2.844 0 0 1 43.16.11h.602a2.85 2.85 0 0 1 2.72 1.999l3.23 10.58L52.928 2.2C53.274.998 54.371.11 55.678.11h.585a2.85 2.85 0 0 1 2.72 2l5.635 18.44c.09.286.135.572.135.887a2.84 2.84 0 0 1-2.855 2.84 2.85 2.85 0 0 1-2.72-1.998l-3.23-10.55-3.245 10.595c-.391 1.097-1.473 1.954-2.705 1.954h-.601c-1.277 0-2.344-.842-2.72-2l-3.23-10.565-3.14 10.28a2.844 2.844 0 0 1-2.735 2.044H26.648a2.825 2.825 0 0 1-2.84-2.825 2.85 2.85 0 0 1 2.855-2.84h7.934c.526 0 .977-.346 1.127-.827" clip-rule="evenodd" fill-rule="evenodd" data-color="1"/>
    </g>
</svg>
