<?xml version="1.0" encoding="UTF-8"?>
<svg data-bbox="0 0.798 133.292 43.554" xmlns="http://www.w3.org/2000/svg" viewBox="0 0 134 45" height="45" width="134" data-type="color">
    <g>
        <path fill="#8D9091" d="M27.782.798c.136.045.256.09.391.12 1.773.556 2.54 1.924 2.389 3.697-.135 1.548-.871 2.84-1.833 4.013a2.36 2.36 0 0 1-1.698.872c-.736.045-1.172-.376-1.232-1.112-.075-.962.33-1.729.916-2.435.526-.631 1.172-.992 1.999-1.007.21 0 .3-.105.346-.27.33-.932-.24-1.79-1.233-1.85-.886-.06-1.668.241-2.464.572-1.818.766-3.41 1.863-4.838 3.201-5.064 4.69-9.15 10.1-12.08 16.367-1.143 2.45-1.999 4.99-2.435 7.665-.33 2.044-.33 4.087.421 6.056.24.647.601 1.233 1.022 1.774.676.856 1.622 1.322 2.57 1.773 1.592.736 3.26.962 5.003.842 2.404-.166 4.733-.737 7.047-1.308 3.155-.766 6.31-1.563 9.466-2.33 2.72-.646 5.454-1.111 8.249-1.217 3.095-.12 6.13.21 9.03 1.443 1.548.661 2.945 1.593 4.297 2.585 1.443 1.052 2.855 2.164 4.057 3.487.166.18.316.376.451.616-.06-.045-.12-.075-.18-.12-2.36-1.593-4.959-2.555-7.768-2.916-1.323-.165-2.66-.165-3.967.135-1.503.361-2.675 1.218-3.546 2.48-.045.075-.09.136-.15.226a8.6 8.6 0 0 0-1.548-2.014c-1.307-1.233-2.87-1.924-4.598-2.315-1.803-.39-3.621-.42-5.44-.285-3.004.225-5.904 1.007-8.82 1.758-2.704.706-5.439 1.368-8.203 1.834-1.818.315-3.636.436-5.47.06-2.9-.601-5.213-2.06-6.67-4.69C.615 37.349.3 36.072.12 34.764c-.03-.465-.06-.946-.12-1.412v-1.608c.015-.105.045-.196.045-.3.075-.692.12-1.399.24-2.09.511-3.05 1.533-5.952 2.93-8.717 2.435-4.794 5.68-8.957 9.647-12.58 2.299-2.103 4.748-4.012 7.573-5.38 1.517-.751 3.08-1.382 4.763-1.683.436-.075.886-.12 1.337-.18h1.247z" data-color="1"/>
        <path fill="#8D9091" d="M95.352 30.871c.21 0 .391.03.541 0 .511-.12 1.007-.225 1.503-.39.15-.046.315-.211.39-.376 1.503-3.081 3.111-6.102 4.884-9.033 2.9-4.78 6.22-9.243 10.172-13.225 1.548-1.548 3.156-3.036 4.898-4.359 1.082-.811 2.209-1.563 3.531-1.969.586-.18 1.172-.255 1.774-.135.54.105.916.511 1.006 1.052.166.962.015 1.894-.345 2.78-.226.542-.496 1.068-.752 1.594a.42.42 0 0 1-.255.195c-.406.12-.826.21-1.292.33.06-.12.09-.21.12-.285.376-.842.781-1.653 1.127-2.51.135-.345.15-.751.18-1.127.03-.36-.225-.556-.556-.406-.466.196-.961.406-1.337.722-.947.781-1.848 1.623-2.75 2.464-2.359 2.21-4.312 4.75-6.175 7.38a109 109 0 0 0-7.438 12.128c-.27.511-.511 1.022-.721 1.593.09-.045.195-.075.27-.135.737-.556 1.503-1.067 2.194-1.668 3.501-3.036 6.686-6.388 9.631-9.95.632-.751 1.218-1.548 1.804-2.314.105-.135.195-.195.36-.195.376-.015.751-.06 1.187-.106-.075.136-.135.226-.195.331-1.052 1.578-2.254 3.051-3.471 4.479-2.404 2.84-4.959 5.53-7.738 8.01a60 60 0 0 1-5.229 4.133.66.66 0 0 0-.241.256c-.976 2.104-1.878 4.253-2.374 6.537-.12.571-.18 1.158-.225 1.744-.015.24.075.496.165.721.196.451.691.631 1.112.39a6 6 0 0 0 1.157-.9c.992-1.008 1.773-2.18 2.554-3.352 1.383-2.074 2.735-4.163 4.178-6.192 1.412-2 3.05-3.803 5.003-5.306q.834-.63 1.713-1.172c.856-.51 1.788-.766 2.795-.616.511.075.961.285 1.292.706.21.27.421.526.646.812.18-.316.361-.631.556-.917a.35.35 0 0 1 .255-.15h3.907c.03 0 .06 0 .135.015-.03.075-.06.15-.09.21-2.028 3.592-4.042 7.184-6.07 10.761-.766 1.338-1.548 2.675-2.299 4.013-.21.376-.346.796-.511 1.187-.09.226-.12.466.09.646.166.15.436.15.706 0a10.7 10.7 0 0 0 3.021-2.72c.991-1.277 1.893-2.615 2.824-3.922.106-.15.211-.226.406-.21h1.112c-.03.074-.03.104-.06.15-1.803 2.885-3.787 5.635-6.221 8.025-1.097 1.082-2.359 1.924-3.756 2.57-.496.225-1.022.33-1.578.24-.886-.135-1.412-.646-1.532-1.593-.076-.586 0-1.187-.061-1.863-.06.09-.105.21-.18.285-1.007 1.022-2.073 1.954-3.336 2.645-.54.286-1.096.526-1.727.541-1.263.03-2.134-.63-2.435-1.863-.18-.707-.15-1.428-.075-2.15 0-.09.015-.165-.015-.285-.105.135-.21.256-.33.39-.887 1.053-1.818 2.045-2.945 2.856-.586.421-1.202.782-1.924.962-1.081.27-2.013-.045-2.69-.947-.48-.63-.645-1.367-.675-2.149-.045-1.367.27-2.675.66-3.968.406-1.367.872-2.705 1.308-4.057.03-.075.045-.166.09-.3-.18.03-.345.074-.496.09l-1.607.18c-.18.015-.286.09-.391.24-1.187 2.074-2.45 4.073-3.967 5.907-1.472 1.773-3.125 3.32-5.169 4.433-.616.33-1.262.571-1.968.646-1.457.136-2.524-.616-2.885-2.044-.27-1.052-.18-2.119.03-3.17.36-1.955 1.127-3.758 2.074-5.471 1.743-3.171 3.861-6.027 6.641-8.371a13 13 0 0 1 3.35-2.044 5.2 5.2 0 0 1 2.03-.406c1.291.03 2.043.676 2.343 1.893.286 1.128.135 2.255-.165 3.367-.316 1.172-.782 2.284-1.307 3.366-.045.106-.09.196-.166.361zm13.418 7.56c-.045.616.301.856.751.841.226 0 .481-.06.662-.195.495-.36.991-.736 1.397-1.187.466-.511.856-1.097 1.262-1.654 1.443-2.043 2.675-4.223 3.907-6.387.886-1.563 1.803-3.11 2.704-4.659.151-.255.211-.496.06-.781-.165-.301-.42-.391-.721-.331-.27.045-.556.12-.781.256a9 9 0 0 0-1.082.811c-1.653 1.443-3.02 3.141-4.222 4.96-1.217 1.833-2.434 3.652-3.276 5.696-.345.826-.616 1.653-.661 2.63m-15.401-6.508c-1.563-.736-2.825-1.698-3.591-3.216-.075.09-.12.15-.18.225-.436.617-.872 1.203-1.278 1.834-1.036 1.593-1.968 3.246-2.569 5.065-.21.646-.376 1.322-.346 2.014.046 1.142.887 1.713 1.924 1.247.48-.21.946-.526 1.352-.857 1.307-1.097 2.314-2.45 3.246-3.877.495-.782.946-1.593 1.427-2.42zm2.389-6.357v-.421c-.135-1.247-.736-1.683-1.938-1.232-.661.24-1.217.706-1.683 1.247-1.773 2.029-.691 4.614 1.668 5.44.165.06.27.016.345-.15.27-.6.601-1.172.842-1.788.405-.992.781-1.999.751-3.081z" data-color="1"/>
        <path fill="#8D9091" d="M29.856 19.494c.315-.075.556-.105.781-.195.811-.301 1.503-.782 2.194-1.293 1.007-.736 1.908-1.578 2.75-2.495a19.2 19.2 0 0 1 3.59-3.036c.872-.57 1.789-1.006 2.825-1.127.572-.06 1.127-.06 1.683.105a2.72 2.72 0 0 1 1.954 2.81c-.136 1.684-.842 3.112-2.029 4.3-.315.315-.676.54-1.112.63a1.084 1.084 0 0 1-1.292-.962c-.045-.42.015-.826.195-1.217a4.04 4.04 0 0 1 1.112-1.488 2.05 2.05 0 0 1 1.413-.51c.225 0 .315-.106.375-.301.256-.842-.345-1.458-1.262-1.293-.63.12-1.172.421-1.668.827-1.758 1.428-3.2 3.14-4.462 5.02a29 29 0 0 0-3.2 6.432c-.316.902-.451 1.819-.196 2.765.285 1.022 1.097 1.503 2.134 1.293 1.006-.21 1.863-.767 2.63-1.413 1.382-1.157 2.599-2.465 3.696-3.877 1.337-1.729 2.599-3.502 3.906-5.245 1.608-2.15 3.35-4.179 5.44-5.877.931-.766 1.923-1.428 3.08-1.803.48-.15.961-.24 1.457-.166.766.09 1.337.496 1.788 1.097.045.076.105.136.165.24q.203-.337.406-.63c.045-.06.135-.15.21-.15h4.057c-.06.12-.105.21-.165.3l-8.61 14.924c-.18.315-.345.631-.33.992 0 .406.255.616.63.466.346-.136.677-.316.978-.541 1.051-.767 1.923-1.714 2.734-2.706.782-.947 1.518-1.938 2.27-2.915.12-.15.225-.21.405-.196h1.142c-.015.06-.03.09-.045.12-1.623 2.36-3.29 4.675-5.29 6.734-1.186 1.217-2.418 2.36-3.906 3.216-.616.36-1.277.586-2.013.601-1.097.015-1.804-.947-1.834-1.743 0-.406 0-.812.03-1.218 0-.09 0-.18.03-.345-.12.12-.18.195-.24.255-.931 1.007-1.938 1.909-3.17 2.54-.646.33-1.307.541-2.044.511-1.352-.06-2.239-.947-2.314-2.3-.045-1.006.18-1.968.436-2.915.015-.075.03-.165.075-.33-.12.104-.18.165-.24.225-1.157 1.052-2.284 2.149-3.471 3.156-1.127.962-2.404 1.683-3.862 2.029-.781.18-1.592.24-2.374.075-.886-.195-1.562-.722-2.058-1.488-.496-.751-.631-1.623-.751-2.495-.196-1.458.165-2.825.736-4.118.57-1.307 1.232-2.585 1.848-3.877.03-.075.075-.15.15-.27-.33.09-.616.15-.916.225-.256.06-.496.15-.752.18-.36.03-.526.225-.706.51-1.037 1.654-2.013 3.367-3.185 4.946-1.518 2.043-3.26 3.877-5.41 5.29-.796.526-1.652.962-2.614 1.127-1.442.255-2.87-.39-3.306-2.09-.27-1.051-.255-2.118-.075-3.17.376-2.27 1.262-4.359 2.434-6.312 1.819-3.021 4.042-5.681 6.852-7.83 1.157-.872 2.374-1.639 3.817-1.97.51-.12 1.066-.18 1.592-.12 1.187.136 1.954.917 2.194 2.12.225 1.082.06 2.134-.24 3.156-.256.841-.586 1.668-.872 2.494-.03.09-.075.196-.135.376zm16.002 8.401c.045.36.165.631.48.797.301.165.617.165.887-.03.541-.391 1.082-.782 1.563-1.248.962-.947 1.683-2.104 2.36-3.261 1.922-3.261 3.8-6.553 5.694-9.844.21-.36.075-.706-.316-.857-.315-.12-.616-.06-.916.06a4.8 4.8 0 0 0-1.818 1.353c-1.608 1.864-3.126 3.802-4.493 5.831-1.157 1.714-2.194 3.502-2.9 5.456-.21.571-.346 1.157-.51 1.743zm-18.316-7.003c-1.668-.511-3.035-1.368-3.877-2.931-.06.075-.105.105-.135.15-.766 1.203-1.578 2.39-2.299 3.622-.841 1.443-1.533 2.961-1.848 4.614-.135.676-.12 1.353.346 1.909.135.165.39.316.6.346a1.7 1.7 0 0 0 1.203-.226c1.051-.601 1.863-1.458 2.66-2.36 1.261-1.442 2.193-3.095 3.185-4.718.075-.12.105-.256.165-.406m-2.374-4.344c0 .842.135 1.263.51 1.714.632.751 1.458 1.157 2.435 1.262.09 0 .255-.06.285-.15.436-.992.932-1.984 1.157-3.066.15-.707.256-1.413.03-2.134-.24-.737-.706-1.007-1.487-.872-.751.12-1.307.556-1.818 1.097-.631.676-1.097 1.443-1.127 2.134z" data-color="1"/>
        <path fill="#8D9091" d="M70.064 35.154c.21-1.894.631-3.697 1.338-5.44.78-1.924 1.788-3.698 3.305-5.155 1.338-1.293 2.87-2.225 4.733-2.585.601-.12 1.202-.136 1.788.105.902.39 1.323 1.127 1.548 2.029.285 1.187.165 2.374-.075 3.562-.451 2.284-1.488 4.328-2.675 6.282-1.743 2.885-3.936 5.365-6.716 7.319-1.262.887-2.57 1.638-4.117 1.939-1.503.3-2.975.285-4.373-.436-1.547-.812-2.524-2.104-3.125-3.727-.57-1.548-.676-3.171-.54-4.795.24-2.81 1.231-5.41 2.343-7.98 1.473-3.412 3.456-6.523 5.62-9.543a54.4 54.4 0 0 1 8.805-9.59c2.63-2.253 5.514-4.117 8.775-5.35 1.127-.42 2.253-.811 3.47-.886 1.398-.09 2.705.105 3.772 1.127.06.06.21.045.3.015.767-.24 1.518-.54 2.3-.751 2.719-.722 5.394-.481 7.918.691 1.623.751 3.17 1.668 4.718 2.54 1.172.646 2.299 1.353 3.456 2.044.075.045.135.09.255.18-.36.36-.721.677-1.067 1.037-.661.707-1.322 1.428-1.968 2.15-.165.18-.285.195-.481.075-.931-.572-1.863-1.143-2.795-1.729-1.652-1.037-3.29-2.119-4.958-3.11a13.8 13.8 0 0 0-4.583-1.73c-.676-.12-1.367-.165-2.028.076-.136.045-.226.105-.21.27.18 2.06-.376 3.983-1.142 5.862-.977 2.39-2.435 4.463-4.238 6.282-.976.977-2.103 1.713-3.456 2.119-1.457.436-2.6-.255-2.9-1.758-.195-1.007.03-1.97.391-2.901 1.292-3.336 3.396-6.087 6.16-8.341.902-.737 1.894-1.368 2.855-2.06.03-.03.06-.044.106-.15-.3-.06-.601-.135-.902-.165-.841-.06-1.638.18-2.389.541-2.39 1.158-4.508 2.706-6.461 4.479-2.57 2.345-4.778 5.005-6.912 7.74-2.674 3.457-4.958 7.139-6.761 11.122-1.142 2.524-1.908 5.154-2.254 7.89-.135 1.112-.09 2.194.315 3.261.782 2.059 2.78 2.886 4.884 2.014 1.367-.556 2.509-1.443 3.546-2.465 2.254-2.24 4.027-4.794 5.154-7.77.45-1.202.78-2.42.796-3.712 0-.21-.015-.436-.045-.646-.135-.932-.616-1.293-1.623-1.052-.57.135-1.022.48-1.412.886a10.6 10.6 0 0 0-2.33 3.758c-.24.66-.39 1.367-.585 2.044-.03.09-.09.195-.166.24-2.028.977-3.756 2.36-5.274 4.013a1 1 0 0 1-.12.105zm23.44-31.08c-.27.15-.48.256-.676.376-3.666 2.194-6.266 5.335-8.054 9.168-.3.63-.496 1.292-.48 2.013.014.872.63 1.368 1.487 1.173.3-.075.601-.21.871-.376 1.067-.631 1.984-1.458 2.81-2.39 2.254-2.495 3.636-5.41 4.042-8.762.045-.375 0-.751 0-1.187z" data-color="1"/>
        <path fill="#8D9091" d="M133.292.993a20.5 20.5 0 0 1-3.095 4.554c-2.209 2.48-4.839 4.388-7.934 5.636-1.788.706-3.621 1.127-5.559 1.097-.586 0-1.172-.09-1.758-.165-.256-.03-.526-.106-.812-.166.06-.09.09-.15.121-.195a645 645 0 0 1 2.749-3.321.46.46 0 0 1 .301-.136c3.636.33 6.896-.766 9.992-2.555a26.2 26.2 0 0 0 5.875-4.659l.09-.09z" data-color="1"/>
        <path fill="#8D9091" d="M63.288 15.511s.06-.135.105-.18c.661-1.082 1.337-2.18 2.013-3.261.045-.075.15-.166.226-.166h3.831c-.045.09-.075.166-.12.226a233 233 0 0 1-1.998 3.231c-.06.09-.18.18-.27.18h-3.697c-.03 0-.045 0-.09-.015z" data-color="1"/>
    </g>
</svg>
