<?xml version="1.0" encoding="UTF-8"?>
<svg data-bbox="0.513 0.007 109.191 60.357" xmlns="http://www.w3.org/2000/svg" viewBox="0 0 110 61" height="61" width="110" data-type="color">
    <g>
        <path fill="#8D9091" d="M66.025 46.462h-2.029v13.586h2.029z" data-color="1"/>
        <path fill="#8D9091" d="M71.058 41.653h2.104l6.701 10.04 6.702-10.04h2.103v18.41h-2.073V45.155l-6.702 9.859h-.105l-6.701-9.83v14.88h-2.029z" data-color="1"/>
        <path fill="#8D9091" d="M99.547 58.605c1.863 0 3.185-.766 4.282-1.923l1.262 1.127c-1.367 1.518-3.02 2.555-5.604 2.555-3.727 0-6.777-2.87-6.777-7.094 0-3.938 2.765-7.094 6.521-7.094 4.027 0 6.326 3.201 6.326 7.2 0 .18 0 .39-.03.706H94.754c.285 2.87 2.389 4.523 4.778 4.523m3.982-6.147c-.241-2.464-1.653-4.568-4.343-4.568-2.344 0-4.132 1.938-4.417 4.568z" data-color="1"/>
        <path fill="#8D9091" d="m.513 36.799 1.292-1.518c1.924 1.728 3.757 2.6 6.311 2.6 2.555 0 4.102-1.308 4.102-3.126v-.06c0-1.714-.916-2.676-4.778-3.502-4.237-.917-6.175-2.285-6.175-5.306v-.044c0-2.886 2.554-5.02 6.04-5.02 2.674 0 4.598.766 6.46 2.254l-1.201 1.608c-1.713-1.397-3.411-1.999-5.304-1.999-2.39 0-3.922 1.308-3.922 2.976v.06c0 1.729.947 2.705 4.989 3.577 4.102.887 5.995 2.39 5.995 5.2v.06c0 3.156-2.63 5.2-6.28 5.2-2.916 0-5.305-.977-7.514-2.945" data-color="1"/>
        <path fill="#8D9091" d="M18.544 21.078h2.073v8.176h10.624v-8.176h2.073v18.41h-2.073v-8.28H20.618v8.28h-2.074z" data-color="1"/>
        <path fill="#8D9091" d="M82.944 21.078h2.268l5.244 15.33 5.049-15.375h1.713l5.048 15.374 5.259-15.33h2.179l-6.581 18.532h-1.758l-5.049-14.924-5.063 14.924H89.51z" data-color="1"/>
        <path fill="#8D9091" d="M21.143 3.734h-2.028v13.587h2.028z" data-color="1"/>
        <path fill="#8D9091" d="m42.84 15.593 1.022-1.443c1.472 1.112 3.095 1.728 4.703 1.728s2.81-.842 2.81-2.15v-.06c0-1.367-1.608-1.893-3.396-2.389-2.134-.601-4.493-1.337-4.493-3.832v-.06c0-2.345 1.939-3.893 4.628-3.893 1.653 0 3.501.571 4.884 1.503L52.08 6.53c-1.262-.812-2.705-1.323-4.027-1.323-1.608 0-2.63.842-2.63 1.97v.044c0 1.293 1.684 1.789 3.502 2.345 2.103.631 4.357 1.443 4.357 3.892v.046c0 2.585-2.134 4.072-4.838 4.072-1.939 0-4.102-.766-5.62-1.998" data-color="1"/>
        <path fill="#8D9091" d="M49.452 46.537h-2.765v1.924h2.765z" data-color="1"/>
        <path fill="#8D9091" d="M52.231 46.537v13.526h2.104V48.446h6.175v-1.909z" data-color="1"/>
        <path fill="#8D9091" d="M28.25 3.795h-2.764v1.924h2.764z" data-color="1"/>
        <path fill="#8D9091" d="M31.045 3.795v13.511h2.104V5.704h6.175v-1.91z" data-color="1"/>
        <path fill="#8D9091" d="M43.486.007h-1.923v2.766h1.923z" data-color="1"/>
        <path fill="#8D9091" d="M71.043 40.48v-1.803c4.613 0 8.37-3.757 8.37-8.371s-3.757-8.371-8.37-8.371V20.13c5.605 0 10.158 4.554 10.158 10.16s-4.553 10.16-10.158 10.16" data-color="1"/>
        <path fill="#8D9091" d="M67.512 39.85a10.21 10.21 0 0 1-6.626-9.529 10.19 10.19 0 0 1 5.995-9.273l.737 1.639a8.38 8.38 0 0 0-4.944 7.634c0 3.487 2.194 6.643 5.454 7.845l-.63 1.684z" data-color="1"/>
        <path fill="#8D9091" d="M43.306 38.542c-4.538 0-8.234-3.697-8.234-8.25a8.24 8.24 0 0 1 8.234-8.237c4.538 0 8.25 3.697 8.25 8.236s-3.697 8.251-8.25 8.251m0-14.683a6.455 6.455 0 0 0-6.446 6.447 6.445 6.445 0 1 0 12.892 0 6.445 6.445 0 0 0-6.446-6.447" data-color="1"/>
        <path fill="#8D9091" d="M58.933 43.336v-1.803c6.175 0 11.209-5.035 11.209-11.212s-5.034-11.212-11.21-11.212c-6.175 0-11.208 5.035-11.208 11.212H45.92c0-7.169 5.83-13.015 13.012-13.015s13.012 5.83 13.012 13.015c0 7.184-5.83 13.015-13.012 13.015" data-color="1"/>
        <path fill="#8D9091" d="M58.933 43.336c-7.167 0-13.013-5.831-13.013-13.015s5.83-13.015 13.013-13.015v1.803c-6.176 0-11.21 5.035-11.21 11.212s5.034 11.211 11.21 11.211c6.175 0 11.209-5.034 11.209-11.211h1.803c0 7.169-5.83 13.015-13.012 13.015" data-color="1"/>
    </g>
</svg>
