<?xml version="1.0" encoding="UTF-8"?>
<svg data-bbox="0.115 -0.001 136.968 49.15" xmlns="http://www.w3.org/2000/svg" viewBox="0 0 138 50" height="50" width="138" data-type="color">
    <g>
        <path fill="#8D9091" d="M135.075 17.239c.15.045.361-.015.436-.331.075-.286-.06-.406-.226-.451l-.15-.045-.21.797.15.045zm-1.097.6c.225.03.256.03.301-.134l.33-1.218c.045-.165.03-.18-.18-.27l.045-.166 1.127.3c.315.091.571.301.466.662-.06.24-.301.42-.571.42l.21.692c.045.15.12.21.195.24l-.045.166-.466-.12c-.105-.03-.15-.12-.195-.27l-.195-.737-.135-.03-.121.466c-.045.165-.03.18.181.27l-.045.166-.947-.256.045-.165zm1.548-1.983c-.812-.226-1.578.24-1.803 1.052-.226.811.21 1.608 1.021 1.833.812.226 1.578-.24 1.803-1.052.226-.811-.21-1.608-1.021-1.833m.12-.436a1.955 1.955 0 0 1 1.367 2.405 1.954 1.954 0 1 1-3.771-1.037 1.96 1.96 0 0 1 2.404-1.368m-10.773 5.786c.135.586.15 1.353.15 1.353s-.015-.36.255-1.263l2.374-7.003c.601-1.804.586-3.111-.225-4.148l.03-.06 5.77 2.149v.075c-1.217.346-2.134 1.353-2.75 3.171-.345 1.082-5.619 16.637-5.619 16.637l-2.915-1.097-2.87-14.232c-.151-.587-.151-1.338-.151-1.338s.015.36-.255 1.262c-.24.812-2.629 7.95-2.629 7.95-.526 1.895-.466 3.202.3 4.194l-.03.06-6.176-1.818v-.06c1.263-.346 2.329-1.308 2.915-3.127l3.907-12.278c.601-2.014.451-3.848-.646-4.9l.03-.06 5.695 1.653 2.825 12.895zM105.054 6.388c-2.795-.617-4.643 2.765-5.605 7.123-1.006 4.6-.54 8.161 2.014 8.717 2.434.526 4.492-2.465 5.499-7.064.962-4.358.887-8.16-1.908-8.776m6.806 9.859c-1.487 6.101-6.01 10.325-11.329 9.152-5.8-1.277-7.588-6.748-6.07-12.97 1.487-6.147 5.695-10.024 11.104-9.107 6.416 1.082 7.738 6.973 6.295 12.925m-27.992 6.342c-2.72-.075-3.02-.857-4.553-1.202-1.127-.256-1.893.24-2.224.63h-.06l.33-7.544h.06c.557 1.458 2.134 3.472 3.968 4.494 1.667.932 3.35.54 4.207-.556.751-.947.931-2.72-.24-3.923-1.173-1.202-3.036-2.014-4.613-3.216-3.156-2.435-2.96-5.711-1.969-7.545 1.382-2.54 4.282-3.592 6.867-3.336 1.578.15 2.284.556 3.38.902 1.097.345 2.074.135 2.284.03h.06l-.495 5.951h-.06c-.571-1.563-2.434-3.532-4.403-3.892-1.728-.316-2.69.285-3.11 1.007-.661 1.097-.36 2.314.826 3.14 1.728 1.188 3.817 2.09 5.2 3.382 1.998 1.894 2.644 5.246.856 8.206-1.443 2.39-4.253 3.502-6.281 3.442M73.98.166l-.165 4.689h-.076c-.75-1.744-2.644-2.104-4.342-2.074l-3.681.03-.105 5.666 1.863.045c2.48.045 3.215-.15 4.117-1.729h.06l-.24 6.733h-.06c-.812-1.743-2.645-1.863-4.343-1.848h-1.397l-.15 6.237 3.831.075c2.48.045 3.726-.631 4.523-2.074h.06l-.691 5.53c-4.538-.15-9.737-.18-13.794 0v-.06c.902-.6 1.413-1.968 1.413-4.027l.15-13.391c.015-1.909-.12-3.126-1.428-3.787V.12c4.433-.166 10.053-.166 14.41.03M49.234.827l6.52-.496v.06c-1.682.812-1.502 2.27-1.336 4.539l.871 12.925c.21 1.893.676 3.351 1.518 3.727v.075s-1.518.09-3.621.256c-2.089.165-3.637.315-3.637.315v-.06c.752-.51 1.398-2.104 1.263-4.073 0 0-.556-8.416-.616-9.122-.076-.797 0-1.338 0-1.338s-.106.586-.301 1.262c-.21.677-4.177 14.022-4.177 14.022h-.105s-5.92-10.956-6.446-11.827a6.2 6.2 0 0 1-.601-1.368s.21.616.345 1.458c.136.841 1.187 8.22 1.187 8.22.33 1.94 1.353 3.322 2.224 3.638v.075l-5.71.932v-.06c.706-.556.797-2.09.541-3.983l-1.728-12.82c-.27-1.954-1.262-3.502-2.704-3.983v-.075l6.49-1.112s5.425 9.844 6.372 11.347c.57-1.879 3.666-12.55 3.666-12.55m-27.482 9.544-.556 7.95 3.952-1.096zm9.601 14.834c-1.412.36-3.816.902-3.816.902v-.06c.54-.511 1.157-1.744.27-3.412l-1.307-2.645-5.53 1.503-.21 3.11c0 1.864.962 2.676 1.713 2.826v.075s-1.758.541-3.14.947c-1.352.436-3.065.947-3.065.947l-.03-.06c.54-.451 1.127-2.014 1.232-3.817.315-4.825.766-12.054 1.172-15.285.195-1.548 0-3.02-1.187-3.442v-.075s1.668-.496 3.711-.977c1.713-.405 3.771-.947 3.771-.947l.03.076c-.796 1.052-.18 2.164.572 3.561a3342 3342 0 0 0 7.287 13.346c.886 1.533 1.457 2.15 2.374 2.57v.075s-2.404.511-3.832.827M5.284 13.151c-.33-1.218-1.352-1.834-2.059-1.879v-.06s1.879-.707 3.261-1.172c1.427-.481 3.47-1.158 3.47-1.158l.031.06c-.526.481-.751 1.473-.466 2.66 0 0 2.615 10.296 2.99 11.648.376 1.353.887 2.12 1.593 2.21l.03.06c-.36.36-.661 1.247-1.037 2.058-.375.827-1.172 3.337-4.222 4.54-3.336 1.292-6.731.51-8.189-1.85-.946-1.532-.736-3.651.781-4.508 1.323-.751 2.75-.27 3.291.812.526 1.052.18 2.194-.255 2.555-.09.075 0 .225.195.36.902.601 1.908.571 2.885.045 1.247-.676 1.668-1.743 1.022-4.223-.526-1.999-2.975-10.806-3.351-12.173" data-color="1"/>
        <path fill="#8D9091" d="M61.24 43.239c-.422 1.397-.857 2.81-1.278 4.208-.406 1.367-1.202 1.818-2.584 1.397-.18-.06-.391-.3-.436-.495-.676-2.706-1.322-5.426-1.983-8.131 0-.06.03-.136.06-.196 1.517-.435 1.998-.195 2.344 1.188.36 1.457.72 2.915 1.337 4.403.36-1.247.721-2.51 1.082-3.757.06-.195.12-.406.18-.601.36-1.248 1.067-1.668 2.284-1.263.255.09.48.481.57.782.482 1.653.932 3.321 1.609 5.05.315-1.128.63-2.24.946-3.367.09-.346.18-.691.27-1.022.436-1.623.527-1.683 2.42-1.428a689 689 0 0 0-1.232 4.57c-.316 1.156-.736 2.299-.947 3.486-.18.947-.766.842-1.412.857-.706.015-1.322.045-1.548-.872-.36-1.473-.811-2.93-1.217-4.389-.03-.12-.105-.24-.165-.36-.105 0-.21-.015-.3-.03" data-color="1"/>
        <path fill="#8D9091" d="M14.42 39.963c2.028 0 3.936-.06 5.845.015 1.111.045 2.058.886 2.283 1.788.27 1.097-.165 1.999-1.427 2.856 1.412 1.037 1.307 2.615 1.518 4.223-.526 0-1.037.075-1.488-.03-.285-.075-.496-.436-.721-.676-.045-.046-.015-.136-.03-.21-.376-2.601-1.022-3.022-3.802-2.406v3.232c-.405.03-.646.075-.886.075-1.338.03-1.322.03-1.307-1.323.014-2.48 0-4.96 0-7.574m2.298 1.638c-.405 2.059-.3 2.179 1.518 2.149.316 0 .631.045.962.045.69 0 1.157-.27 1.202-1.037.045-.782-.406-1.112-1.082-1.142-.842-.045-1.698 0-2.585 0" data-color="1"/>
        <path fill="#8D9091" d="M75.994 39.992h2.119c0 2.78 0 5.516-.03 8.236 0 .21-.36.556-.616.601-.436.106-.917.03-1.473.03 0-.796-.03-1.517 0-2.239.03-.796-.255-1.127-1.112-1.127-2.329.03-2.374 0-2.329 2.284.016.932-.315 1.203-1.171 1.097-.27-.03-.556 0-.947 0v-8.821c.105-.03.195-.076.3-.09 1.788-.12 1.773-.12 1.788 1.622.03 2.285-.3 1.94 1.984 1.984 1.472.03 1.487 0 1.457-1.488v-2.089" data-color="1"/>
        <path fill="#8D9091" d="M112.537 43.374c.045.631.09 1.082.15 1.713-1.082 0-2.104.03-3.11 0-.722-.03-1.022.196-1.007.962 0 .782.27 1.067 1.067 1.022 1.307-.06 2.614-.015 3.966-.015v1.729h-7.092v-8.823h6.957c.436 1.563.346 1.684-1.187 1.684-.961 0-1.923.045-2.885.015-.631-.015-.781.285-.781.841 0 .571.135.872.766.857 1.022-.03 2.059 0 3.171 0" data-color="1"/>
        <path fill="#8D9091" d="M47.972 48.814h-2.089c0-.856-.015-1.653 0-2.45 0-.555-.165-.856-.781-.856-3.14.015-2.57-.42-2.66 2.405 0 .27-.03.556-.045.886h-1.923v-8.807h1.983c0 .917-.06 1.819.03 2.72.03.301.406.782.661.812.872.105 1.758.045 2.735.045 0-.856.06-1.608-.015-2.33-.105-1.036.3-1.442 1.307-1.292.24.03.481.03.797.06v8.822z" data-color="1"/>
        <path fill="#8D9091" d="M104.783 39.917c-1.096 1.022-1.968 1.879-2.915 2.69-.54.466-.691.842-.24 1.518.962 1.473 1.818 3.021 2.72 4.554-1.879.466-2.164.33-3.051-1.217-.495-.857-1.036-1.668-1.547-2.465-2.059.661-1.518 2.36-1.623 3.818h-2.043v-8.792h2.088v3.156l.256.12c.78-.752 1.652-1.413 2.298-2.27 1.037-1.382 2.375-1.262 4.057-1.097" data-color="1"/>
        <path fill="#8D9091" d="M85.821 46.004c.932-.015 1.698-.315 2.284.662.45.751 2.66.962 3.366.42.24-.18.48-.6.435-.886-.045-.256-.405-.571-.69-.662-.812-.24-1.668-.33-2.495-.54-1.848-.466-2.584-1.308-2.51-2.781.06-1.292 1.143-2.284 2.84-2.57 2.15-.36 4.013.601 4.478 2.315.03.12 0 .27 0 .45-.826.12-1.517.301-2.193-.54-.331-.421-1.233-.557-1.849-.512-.465.046-.886.602-1.322.932.42.346.796.827 1.277.992.797.27 1.683.24 2.495.466 1.682.48 2.344 1.743 1.818 3.352-.06.165-.105.345-.21.48-1.023 1.338-2.465 1.578-3.998 1.458-1.532-.12-2.81-.706-3.5-2.209-.106-.21-.106-.466-.18-.842" data-color="1"/>
        <path fill="#8D9091" d="M29.82 46.034c1.128-.105 1.849-.256 2.48.601.601.812 2.239.992 3.155.496.3-.165.631-.571.616-.857 0-.255-.435-.63-.736-.721-.841-.256-1.743-.346-2.6-.556-1.622-.39-2.433-1.338-2.358-2.69.09-1.443 1.127-2.375 2.764-2.555 1.383-.15 2.72-.15 3.757.931.405.421.63 1.023 1.021 1.669-1.081.225-1.818.39-2.464-.511-.495-.707-2.193-.677-2.84-.09-.54.495-.435 1.022.18 1.247.707.27 1.488.406 2.255.526 2.269.346 3.305 1.383 2.885 3.186-.166.676-.677 1.443-1.263 1.834-1.607 1.097-4.582.63-5.875-.812-.375-.42-.586-.992-.961-1.668" data-color="1"/>
        <path fill="#8D9091" d="M120.26 48.815h-1.818c-.436-1.533.39-3.187-.707-4.645-.946-1.262-1.682-2.675-2.539-4.042 2.044-.541 2.074-.526 3.095 1.127.391.631.812 1.232 1.323 2.014.571-.887 1.142-1.608 1.517-2.405.526-1.127 1.368-1.127 2.54-.902-1.563 2.81-4.117 5.185-3.051 8.868h-.345" data-color="1"/>
        <path fill="#8D9091" d="M27.477 40.023h-1.954v8.792h1.954z" data-color="1"/>
        <path fill="#8D9091" d="M11.114 40.007H9.146v8.777h1.968z" data-color="1"/>
        <path fill="#8D9091" d="M81.313 39.993h2.15v4.614c0 .992-.061 1.983.014 2.975.075 1.022-.27 1.458-1.307 1.293-.24-.03-.48 0-.857 0z" data-color="1"/>
    </g>
</svg>
