<?xml version="1.0" encoding="UTF-8"?>
<svg data-bbox="0.896 0.491 201.794 39.391" xmlns="http://www.w3.org/2000/svg" viewBox="0 0 203 40" height="40" width="203" data-type="color">
    <g>
        <path fill="#8D9091" d="M131.814 6.216h-4.297c-.225-1.292-1.037-2.179-2.78-2.179-1.472 0-2.449.601-2.449 1.713 0 .932.676 1.338 1.969 1.624l2.404.556c3.14.676 5.183 1.953 5.183 4.9 0 3.44-2.824 5.59-7.122 5.59-3.861 0-7.362-1.819-7.768-6.072h4.267c.286 1.518 1.593 2.435 3.621 2.435 1.593 0 2.42-.586 2.42-1.518 0-.586-.361-1.187-1.818-1.473l-2.825-.631c-3.381-.737-4.974-2.33-4.974-5.05 0-3.442 2.78-5.62 6.822-5.62 2.78 0 6.927 1.081 7.362 5.71" data-color="1"/>
        <path fill="#8D9091" d="m64.605 39.52-.18-2.073c-1.232 1.518-3.035 2.435-5.44 2.435-5.379 0-9.15-3.848-9.15-8.777 0-5.366 3.937-9.123 9.196-9.123 4.192 0 7.843 2.375 8.564 6.477h-4.477c-.752-1.998-2.48-2.555-4.012-2.555-2.93 0-4.959 2.075-4.959 5.11 0 2.706 1.953 4.9 5.004 4.9 1.998 0 3.516-.992 4.342-2.63l-4.928-.045v-3.367h9.195v9.664h-3.185z" data-color="1"/>
        <path fill="#8D9091" d="M70.916 22.327V39.52h12.997v-3.727h-8.715v-2.976h7.603V29.18h-7.603v-3.14h8.715v-3.713z" data-color="1"/>
        <path fill="#8D9091" d="M91.32 39.52h-4.267V22.327h7.528c4.252 0 7.107 2.33 7.107 6.042 0 2.404-1.232 4.298-3.29 5.335l3.921 5.816h-5.154l-3.2-4.974h-2.66v4.974zm6.116-11.151c0-1.383-1.322-2.27-2.96-2.27H91.32v4.6h3.156c1.638 0 2.96-.917 2.96-2.33" data-color="1"/>
        <path fill="#8D9091" d="M144.21 27.663h-4.297c-.225-1.293-1.037-2.18-2.78-2.18-1.472 0-2.449.602-2.449 1.714 0 .932.676 1.338 1.969 1.623l2.404.556c3.14.677 5.184 1.954 5.184 4.9 0 3.441-2.825 5.59-7.123 5.59-3.861 0-7.362-1.818-7.753-6.071h4.267c.286 1.518 1.593 2.435 3.622 2.435 1.592 0 2.434-.587 2.434-1.518 0-.587-.361-1.188-1.818-1.473l-2.825-.631c-3.396-.737-4.974-2.33-4.974-5.065 0-3.442 2.78-5.621 6.822-5.621 2.78 0 6.927 1.082 7.363 5.71" data-color="1"/>
        <path fill="#8D9091" d="M127.036 22.327h-4.267V39.52h4.267z" data-color="1"/>
        <path fill="#8D9091" d="m112.221 27.197 2.224 5.71h-4.448zm-2.058-4.87-7.258 17.193h4.553l1.142-2.96h7.287l1.157 2.96h4.523l-7.242-17.193z" data-color="1"/>
        <path fill="#8D9091" d="M152.79 5.48q0-.7.316-1.262c.21-.376.51-.662.886-.872q.563-.316 1.262-.316c.376 0 .736.06 1.052.196a2.06 2.06 0 0 1 1.262 1.533h-1.217a.8.8 0 0 0-.195-.331.7.7 0 0 0-.271-.21c-.105-.046-.195-.09-.3-.106a2 2 0 0 0-.316-.03c-.405 0-.721.12-.961.376q-.361.384-.361.992c0 .376.12.691.376.932.24.255.571.375.961.375.271 0 .496-.06.691-.18.196-.12.361-.3.481-.526h-1.322v-.917h2.464v2.6h-.856l-.045-.556c-.346.436-.842.647-1.458.647a2.56 2.56 0 0 1-1.277-.316 2.27 2.27 0 0 1-.871-.857 2.3 2.3 0 0 1-.316-1.187" data-color="1"/>
        <path fill="#8D9091" d="M160.919 4.488a1.33 1.33 0 0 0-.361.947c0 .376.12.676.361.947.24.255.556.39.916.39.361 0 .677-.135.917-.39q.36-.383.361-.947 0-.563-.361-.947a1.23 1.23 0 0 0-.917-.39c-.36 0-.676.135-.916.39m-1.202 2.164a2.37 2.37 0 0 1-.316-1.217c0-.45.105-.842.316-1.217.21-.376.511-.662.871-.872.376-.21.797-.316 1.247-.316.346 0 .662.06.962.196.301.12.556.3.781.51.211.211.391.467.511.767s.196.616.196.947-.061.646-.196.947c-.12.3-.3.556-.511.766-.21.21-.48.391-.781.511-.3.12-.631.196-.962.196-.45 0-.871-.106-1.247-.316a2.2 2.2 0 0 1-.871-.872" data-color="1"/>
        <path fill="#8D9091" d="M165.502 3.12h1.262l1.322 3.126 1.322-3.126h1.263l-1.999 4.644h-1.157z" data-color="1"/>
        <path fill="#8D9091" d="M172.443 7.734V3.12h3.486v.992h-2.344v.842h2.044v.977h-2.044v.811h2.344v.992z" data-color="1"/>
        <path fill="#8D9091" d="M179.115 5.36h.856c.226 0 .421-.06.556-.166a.55.55 0 0 0 .226-.45.51.51 0 0 0-.226-.437.94.94 0 0 0-.556-.165h-.856v1.232zm-1.157 2.374V3.12h2.013c.571 0 1.037.15 1.398.436.345.3.526.691.526 1.187 0 .3-.075.571-.211.812-.135.24-.33.436-.571.57l1.082 1.609h-1.337l-.887-1.338h-.871v1.338z" data-color="1"/>
        <path fill="#8D9091" d="M183.878 7.734V3.12h.887l2.223 2.6v-2.6h1.142v4.614h-.886l-2.209-2.525v2.525z" data-color="1"/>
        <path fill="#8D9091" d="M191.436 4.488a1.33 1.33 0 0 0-.361.947c0 .376.12.676.361.947.24.255.556.39.916.39.361 0 .677-.135.917-.39q.36-.383.361-.947 0-.563-.361-.947a1.23 1.23 0 0 0-.917-.39c-.36 0-.676.135-.916.39m-1.217 2.164a2.37 2.37 0 0 1-.316-1.217c0-.45.105-.842.316-1.217.21-.376.511-.662.871-.872.376-.21.797-.316 1.247-.316.346 0 .661.06.962.196.301.12.556.3.781.51.211.211.391.467.511.767q.18.45.181.947 0 .495-.181.947c-.12.3-.3.556-.511.766-.21.21-.48.391-.781.511s-.631.196-.962.196c-.45 0-.871-.106-1.247-.316a2.2 2.2 0 0 1-.871-.872" data-color="1"/>
        <path fill="#8D9091" d="M152.895 27.407v-4.613h3.486v.991h-2.344v.842h2.059v.977h-2.059v.812h2.344v.991z" data-color="1"/>
        <path fill="#8D9091" d="M158.109 25.86h1.157c.045.21.15.375.316.48.165.12.39.18.661.18.195 0 .36-.045.481-.12.12-.075.18-.18.18-.3q0-.316-.496-.406l-.766-.165c-.451-.106-.797-.256-1.007-.466a1.23 1.23 0 0 1-.331-.872c0-.466.166-.827.511-1.097.331-.27.782-.406 1.323-.406.165 0 .33 0 .48.045a2.3 2.3 0 0 1 .962.42c.135.106.255.256.346.437.105.18.15.39.18.631h-1.142c-.075-.406-.331-.616-.766-.616a.93.93 0 0 0-.496.12.4.4 0 0 0-.18.346c0 .12.045.225.135.3s.225.12.421.166l.646.15c.45.09.796.24 1.021.45.241.196.346.497.346.857 0 .466-.18.827-.526 1.098-.346.27-.811.405-1.382.405-.271 0-.511-.03-.752-.105-.24-.06-.45-.165-.631-.285a1.7 1.7 0 0 1-.48-.511 1.9 1.9 0 0 1-.226-.737" data-color="1"/>
        <path fill="#8D9091" d="M163.488 23.83v-1.036h4.087v1.037h-1.472v3.576h-1.142v-3.576z" data-color="1"/>
        <path fill="#8D9091" d="M170.37 25.634h1.202l-.601-1.533zm-1.908 1.774 1.953-4.644h1.097l1.953 4.644h-1.217l-.315-.797h-1.954l-.3.797z" data-color="1"/>
        <path fill="#8D9091" d="M176.455 26.37h.707c.375 0 .691-.12.946-.375.256-.24.376-.556.376-.917 0-.36-.12-.661-.376-.902a1.33 1.33 0 0 0-.946-.36h-.707zm-1.142 1.037v-4.613h1.849c.36 0 .691.06.991.165.316.12.571.27.797.466.225.195.39.435.511.721.12.286.18.601.18.932q0 .495-.18.947a2.2 2.2 0 0 1-.511.736 2.2 2.2 0 0 1-.797.466c-.315.12-.646.165-.991.165h-1.849z" data-color="1"/>
        <path fill="#8D9091" d="M182.646 24.16q-.36.384-.361.948 0 .563.361.947c.24.255.556.39.916.39.361 0 .677-.135.917-.39q.36-.384.361-.947c0-.376-.121-.677-.361-.947a1.23 1.23 0 0 0-.917-.39c-.36 0-.676.134-.916.39m-1.202 2.15a2.4 2.4 0 0 1-.316-1.217c0-.451.106-.842.316-1.218.21-.36.511-.661.871-.871.376-.21.797-.316 1.247-.316.346 0 .662.06.962.18.301.12.556.3.781.511.211.21.391.466.511.767.121.3.196.616.196.947s-.06.646-.196.947c-.12.3-.3.556-.511.766-.21.21-.48.376-.781.51a2.6 2.6 0 0 1-.962.181c-.45 0-.871-.105-1.247-.315a2.2 2.2 0 0 1-.871-.872" data-color="1"/>
        <path fill="#8D9091" d="M199.339 36.86c0-.134.045-.24.136-.345.09-.09.21-.135.345-.135s.256.045.346.135.15.196.15.33a.44.44 0 0 1-.15.346.48.48 0 0 1-.346.136.48.48 0 0 1-.345-.136.45.45 0 0 1-.136-.345" data-color="1"/>
        <path fill="#8D9091" d="M153 37.252v-4.63h3.351v.752h-2.539v1.217h2.269v.752h-2.269v1.142h2.539v.767z" data-color="1"/>
        <path fill="#8D9091" d="M158.5 37.252v-4.63h3.305v.752h-2.494v1.338h2.194v.751h-2.194v1.788z" data-color="1"/>
        <path fill="#8D9091" d="M164.6 32.623h-.811v4.614h.811z" data-color="1"/>
        <path fill="#8D9091" d="M174.141 32.623h-.811v4.614h.811z" data-color="1"/>
        <path fill="#8D9091" d="M176.41 37.252v-4.63h3.366v.752h-2.539v1.217h2.254v.752h-2.254v1.142h2.539v.767z" data-color="1"/>
        <path fill="#8D9091" d="M181.94 37.252v-4.63h.616l2.659 3.187v-3.186h.812v4.629h-.646l-2.63-3.111v3.11z" data-color="1"/>
        <path fill="#8D9091" d="M187.92 33.374v-.751h4.027v.751h-1.608v3.862h-.811v-3.862z" data-color="1"/>
        <path fill="#8D9091" d="M194.11 37.252v-4.63h3.351v.752h-2.539v1.217h2.269v.752h-2.269v1.142h2.539v.767z" data-color="1"/>
        <path fill="#8D9091" d="M170.415 35.703h.872a2.25 2.25 0 0 1-.722 1.112c-.405.346-.916.511-1.487.511a2.56 2.56 0 0 1-1.443-.45 2.5 2.5 0 0 1-.526-.511 2.1 2.1 0 0 1-.345-.662c-.09-.24-.12-.51-.12-.781 0-.27.045-.541.12-.782.075-.255.195-.466.345-.661a3 3 0 0 1 .526-.511 2.4 2.4 0 0 1 .676-.33c.241-.076.496-.12.767-.12.586 0 1.082.164 1.487.51.346.286.586.661.722 1.112h-.872a1.3 1.3 0 0 0-.421-.556c-.24-.195-.556-.285-.916-.285-.466 0-.842.15-1.142.45q-.451.452-.451 1.173c0 .48.15.856.451 1.172.3.3.676.45 1.142.45.36 0 .676-.104.916-.285.181-.15.331-.33.421-.556" data-color="1"/>
        <path fill="#8D9091" d="m20.22 24.492 4.793 6.673H15.41l4.793-6.673zm-6.04-8.416 5.213 7.258-5.62 7.83H3.346zm6.866 7.258 5.214-7.258 10.833 15.089H26.665l-5.634-7.83zm-6.04-8.4 5.213-7.26 5.214 7.26-5.214 7.258zM.896 39.505h38.646V.85H.896z" data-color="1"/>
        <path fill="#8D9091" d="m65.612.866-6.086 9.168-6.13-9.168H50.24V18.06h4.253V9.388l3.846 5.936v.03h2.374v-.03l3.817-5.891v8.626h4.267V.866z" data-color="1"/>
        <path fill="#8D9091" d="M76.926.866h-4.267V18.06h4.267z" data-color="1"/>
        <path fill="#8D9091" d="M92.342.866v9.679L84.048.866h-3.26V18.06h4.282V8.621l8.234 9.438h3.305V.866z" data-color="1"/>
        <path fill="#8D9091" d="m107.563 5.736 2.224 5.71h-4.448zm-2.058-4.87L98.247 18.06h4.553l1.142-2.96h7.287l1.157 2.96h4.523L109.667.866z" data-color="1"/>
        <path fill="#8D9091" d="M153.812 16.812h.916c.466 0 .842-.15 1.157-.451.316-.3.466-.676.466-1.112s-.15-.797-.466-1.097c-.315-.3-.691-.436-1.157-.436h-.916v3.11zm-.812.766v-4.614h1.728c.466 0 .887.106 1.263.3.375.196.661.482.886.828q.316.518.316 1.172c0 .436-.106.841-.316 1.187-.21.36-.511.631-.886.842-.376.195-.797.3-1.263.3H153z" data-color="1"/>
        <path fill="#8D9091" d="M159.702 12.95h-.812v4.613h.812z" data-color="1"/>
        <path fill="#8D9091" d="M162.046 17.578V12.95h3.305v.767h-2.494v1.322h2.194v.752h-2.194v1.788z" data-color="1"/>
        <path fill="#8D9091" d="M167.35 17.578V12.95h3.351v.767h-2.54v1.202h2.269v.752h-2.269v1.142h2.54v.766z" data-color="1"/>
        <path fill="#8D9091" d="M173.691 15.294h1.051c.286 0 .541-.075.722-.21a.68.68 0 0 0 .285-.587c0-.255-.09-.435-.285-.57a1.15 1.15 0 0 0-.722-.226h-1.051zm-.812 2.284v-4.614h1.894c.525 0 .961.136 1.292.421.33.286.511.661.511 1.127 0 .331-.091.617-.271.872q-.27.36-.721.541l1.262 1.668h-.992l-1.142-1.518h-1.021v1.518h-.812z" data-color="1"/>
        <path fill="#8D9091" d="M178.844 17.578V12.95h3.351v.767h-2.539v1.202h2.269v.752h-2.269v1.142h2.539v.766z" data-color="1"/>
        <path fill="#8D9091" d="M184.118 17.578V12.95h.617l2.659 3.186V12.95h.811v4.63h-.646l-2.629-3.112v3.111z" data-color="1"/>
        <path fill="#8D9091" d="M190.339 13.716v-.767h4.042v.767h-1.608v3.862h-.811v-3.862z" data-color="1"/>
        <path fill="#8D9091" d="M196.319 17.578V12.95h3.351v.767h-2.539v1.202h2.268v.752h-2.268v1.142h2.539v.766z" data-color="1"/>
        <path fill="#8D9091" d="M201.713 17.218a.5.5 0 0 1 .136-.346c.09-.09.21-.135.345-.135s.256.045.346.135.15.195.15.33a.44.44 0 0 1-.15.346.48.48 0 0 1-.346.136.48.48 0 0 1-.345-.136.47.47 0 0 1-.136-.345" data-color="1"/>
    </g>
</svg>
