<?xml version="1.0" encoding="UTF-8"?>
<svg data-bbox="0 0 979.5 230.33" viewBox="0 0 979.5 230.33" xmlns="http://www.w3.org/2000/svg" data-type="color">
    <g>
        <path d="M136.88 100.68c-5.89 30.21-31.27 47.73-68.89 47.73-23.79 0-43.28-7.22-54.62-20.58C4.53 117.75 0 105.06 0 91.26 0 55.8 28.33 31.71 70.03 31.71c21.53 0 39.88 6.79 50.99 18.61 6.57 7.22 10.42 14.67 13.14 26.49H98.13C94.5 63.02 84.99 55.79 69.58 55.79c-20.4 0-33.99 13.57-33.99 33.72s13.6 34.81 33.09 34.81c15.64 0 27.19-8.98 30.14-23.65h38.07Z" fill="#8c9091" data-color="1"/>
        <path d="M182.65 97.37c.23 16.96 12.69 27.54 31.95 27.54 13.82 0 22.43-4.63 26.74-14.54H281c-3.63 9.91-8.38 16.3-17.45 23.57-12.92 10.35-28.1 15.2-47.82 15.2-23.57 0-42.15-6.17-53.71-17.63-10.2-10.13-15.64-24.24-15.64-40.32 0-36.35 26.29-59.49 67.99-59.49 28.1 0 49.18 10.13 59.37 28.86 5.89 10.57 8.16 20.93 8.61 36.79h-99.71Zm61.41-21.59c-3.63-14.98-13.6-22.47-30.14-22.47s-26.74 7.49-30.14 22.47z" fill="#8c9091" data-color="1"/>
        <path d="M293.27 36.25h35.81v13.6c15.41-12.69 27.19-17.45 43.51-17.45 15.41 0 29.69 5.44 38.52 14.96 8.61 9.06 11.33 18.58 11.33 38.98v61.64h-35.81V88.83c0-11.33-2.27-17.9-7.93-22.89-4.99-4.31-12.01-6.8-19.72-6.8-18.58 0-29.91 11.56-29.91 30.59v58.24h-35.81V36.25Z" fill="#8c9091" data-color="1"/>
        <path d="M556.92 48.79c12.24 10.51 18.36 24.3 18.36 42.25 0 33.93-29.46 57.36-72.06 57.36s-72.07-23.21-72.07-58.46 28.78-58.24 72.52-58.24c21.3 0 40.11 6.13 53.26 17.08Zm-87.25 41.16c0 19.27 13.82 32.84 33.54 32.84s33.54-13.57 33.54-32.18c0-19.7-13.6-33.28-33.31-33.28s-33.77 13.35-33.77 32.62" fill="#8c9091" data-color="1"/>
        <path d="M703.19 144.04c-7.16 1.8-10.28 2.25-14.22 2.24-9.71-.02-13.2-6.38-10.06-18.85-18.74 15.62-32.54 20.81-54.74 20.77-27.29-.05-41.03-12.55-36-32.51 3.31-13.15 11.61-22.21 25.47-27.63 6.41-2.49 14.73-4.28 29.76-6.07l24.39-3.13c18.44-2.46 24.61-5.85 26.95-15.15 3.26-12.93-6.82-19.75-28.56-19.79-26.36-.05-40.33 7.64-46.81 26l-15.03-.03c4.88-12.02 8.68-17.91 15.71-23.79 12.22-10.87 26.95-15.15 50.08-15.11 20.58.04 32.62 4.6 37.51 14.59 3.43 6.59 3.15 11.35-1.19 28.59l-12.57 49.89c-1.66 6.58-.14 9.76 4.94 9.76 1.62 0 3.81-.45 7.28-1.35l-2.91 11.56Zm-15.53-51.3c.97-3.85 1.6-5.44 2.86-9.52-7.04 4.07-12.07 5.65-28.42 8.11l-21.84 3.14c-25.49 3.81-34.09 8.56-37.06 20.35-3.37 13.38 6.25 21.11 26.14 21.15 16.42.03 32.47-5.84 45.16-16.7 6.28-5.66 8.42-8.6 10.02-14.96z" fill="#8c9091" data-color="1"/>
        <path d="M714.46 145.2 742.4 34.31l13.87.03-3.03 12.02c-.8 3.17-1.66 5.67-3.09 10.43 14-17.9 25.6-24.45 43.17-24.42 5.09 0 8.44.47 14.52 2.07l-3.37 13.38c-7.69-1.6-10.64-1.84-15.27-1.84-14.11-.03-28.71 8.34-37.86 21.71-3.34 4.99-3.91 6.35-6.37 16.1l-15.49 61.45-15.03-.03Z" fill="#8c9091" data-color="1"/>
        <path d="m873.97 183.84 15.31-60.77c-16.65 18.35-31.43 25.58-52.24 25.54-33.76-.06-52.51-24.83-44.05-58.39s40.52-58.91 74.29-58.85c14.11.03 25.63 4.81 32.3 13.22 2.79 3.64 4.12 6.59 6.17 13.17l5.83-23.13 14.57.03-37.6 149.21-14.57-.03Zm-65.84-94.05c-6.69 26.53 7.42 45.84 33.78 45.89 25.44.05 50.18-19.19 56.41-43.91 6.74-26.76-7.95-47.43-33.61-47.48-26.13-.05-49.95 19.19-56.58 45.5" fill="#8c9091" data-color="1"/>
        <path d="M158.26 205.27c-2.58 10.51-8.8 15.44-19.37 15.44-12.44 0-20.48-8.04-20.48-20.37 0-5.22 1.59-10.04 4.46-13.68 3.58-4.46 9.16-6.75 16.44-6.75 6.51 0 11.74 2.11 15.26 6.22 2 2.29 2.82 4.4 3.29 7.98h-3.99c-1.53-7.04-6.46-10.74-14.38-10.74-6.69 0-11.8 2.47-14.56 7.1-1.64 2.76-2.52 6.16-2.52 9.8 0 10.33 6.4 16.96 16.32 16.96 5.69 0 10.33-2.17 12.97-6.1 1.17-1.7 1.76-3.11 2.35-5.87h4.23Z" fill="#8c9091" data-color="1"/>
        <path d="M193.77 211.02c-.82 2.58-1.53 3.82-2.99 5.34-2.58 2.7-6.75 4.34-11.03 4.34-8.75 0-14.73-6.1-14.73-15.08s6.1-15.26 15.03-15.26c5.58 0 10.33 2.64 12.79 7.16 1.47 2.64 1.94 4.87 2 9.04h-26.18c.41 3.82 1.41 6.1 3.52 8.04 1.94 1.76 4.75 2.76 7.75 2.76 4.7 0 8.16-2.17 9.98-6.34h3.87Zm-2.82-7.51c-.35-2.52-.82-3.87-1.88-5.34-1.94-2.82-5.4-4.46-9.21-4.46-4.34 0-8.1 2.11-9.86 5.63-.59 1.23-.88 2.23-1.12 4.17z" fill="#8c9091" data-color="1"/>
        <path d="M226.99 219.89v-17.73c0-2.82-.41-4.4-1.41-5.69-1.35-1.64-3.76-2.58-6.93-2.58-3.64 0-7.1 1.35-9.27 3.64-1.64 1.76-2.35 3.76-2.35 6.75v15.61h-3.76v-28.7h3.76v6.1c1.41-2.17 2.29-3.11 3.93-4.17 2.41-1.58 5.52-2.46 8.75-2.46 4.05 0 7.63 1.41 9.39 3.76 1.23 1.58 1.7 3.58 1.7 7.34v18.14h-3.82Z" fill="#8c9091" data-color="1"/>
        <path d="M270.01 205.8c0 8.57-6.51 14.91-15.38 14.91s-15.32-6.16-15.32-15.03 6.34-15.32 15.5-15.32 15.2 6.28 15.2 15.44m-26.95-.29c0 6.93 4.87 11.86 11.74 11.86s11.39-4.99 11.39-11.68-4.75-11.97-11.45-11.97-11.68 4.99-11.68 11.8Z" fill="#8c9091" data-color="1"/>
        <path d="M306.98 216.13c0 5.28-.88 8.16-3.05 10.39-2.52 2.52-6.57 3.81-11.97 3.81-4.23 0-7.16-.7-9.57-2.35-2.35-1.59-3.4-3.29-3.99-6.57h3.93c.53 3.93 3.52 5.63 9.86 5.63 4.11 0 7.16-.94 9.04-2.82 1.47-1.47 2.11-3.46 2.11-6.69v-4.17c-2.88 4.58-6.22 6.46-11.39 6.46-8.63 0-15.14-6.34-15.14-14.73s6.46-14.73 15.08-14.73c3.52 0 6.69 1.12 8.92 3.17.94.82 1.53 1.64 2.52 3.29v-5.63h3.64v24.95Zm-26.3-11.09c0 6.57 4.87 11.45 11.39 11.45s11.62-5.05 11.62-11.33c0-6.63-4.87-11.45-11.5-11.45s-11.5 4.64-11.5 11.33Z" fill="#8c9091" data-color="1"/>
        <path d="M317.36 219.89v-28.7h3.52v3.11c0 .82-.06 1.47-.12 2.7 2.41-4.64 4.93-6.34 9.39-6.34 1.29 0 2.17.12 3.82.53v3.46c-2.05-.41-2.82-.47-3.99-.47-3.58 0-6.75 2.17-8.22 5.63-.53 1.29-.59 1.64-.59 4.17v15.91h-3.82Z" fill="#8c9091" data-color="1"/>
        <path d="M369.42 219.59c-1.7.47-2.47.59-3.46.59-2.47 0-3.76-1.64-3.76-4.87-3.76 4.05-6.93 5.4-12.56 5.4-6.93 0-11.21-3.23-11.21-8.39 0-3.4 1.53-5.75 4.7-7.16 1.47-.65 3.46-1.12 7.16-1.58l5.99-.82c4.52-.65 5.87-1.53 5.87-3.93 0-3.35-2.99-5.11-8.51-5.11-6.69 0-9.74 2-10.21 6.75h-3.82c.47-3.11 1.06-4.64 2.47-6.16 2.41-2.82 5.87-3.93 11.74-3.93 5.22 0 8.57 1.17 10.45 3.76 1.29 1.7 1.53 2.94 1.53 7.4v12.91c0 1.7.59 2.52 1.88 2.52.41 0 .94-.12 1.76-.35v2.99Zm-7.22-13.26c0-1 .06-1.41.12-2.47-1.53 1.06-2.7 1.47-6.69 2.11l-5.34.82c-6.22 1-8.1 2.23-8.1 5.28 0 3.46 2.93 5.46 7.98 5.46 4.17 0 7.87-1.53 10.39-4.34 1.23-1.47 1.58-2.23 1.58-3.87z" fill="#8c9091" data-color="1"/>
        <path d="M377.99 219.89v-25.65H373v-3.05h4.99v-3.05c0-3.23.23-4.64.94-5.81.88-1.35 2.64-2.11 5.16-2.11 1.29 0 2.29.06 4.52.35v3.23c-1.88-.29-2.58-.35-3.64-.35-1.29 0-2.35.41-2.82 1.12-.29.47-.41 1.06-.41 2.52v4.11h6.87v3.05h-6.87v25.65h-3.76Z" fill="#8c9091" data-color="1"/>
        <path d="M395.71 185.02v-4.29h3.82v4.29zm0 34.87v-28.7h3.82v28.7z" fill="#8c9091" data-color="1"/>
        <path d="M438.79 219.59c-1.7.47-2.46.59-3.46.59-2.47 0-3.76-1.64-3.76-4.87-3.76 4.05-6.93 5.4-12.56 5.4-6.93 0-11.21-3.23-11.21-8.39 0-3.4 1.52-5.75 4.69-7.16 1.47-.65 3.46-1.12 7.16-1.58l5.99-.82c4.52-.65 5.87-1.53 5.87-3.93 0-3.35-2.99-5.11-8.51-5.11-6.69 0-9.74 2-10.21 6.75h-3.82c.47-3.11 1.06-4.64 2.46-6.16 2.41-2.82 5.87-3.93 11.74-3.93 5.22 0 8.57 1.17 10.45 3.76 1.29 1.7 1.53 2.94 1.53 7.4v12.91c0 1.7.59 2.52 1.88 2.52.41 0 .94-.12 1.76-.35v2.99Zm-7.21-13.26c0-1 .06-1.41.12-2.47-1.53 1.06-2.7 1.47-6.69 2.11l-5.34.82c-6.22 1-8.1 2.23-8.1 5.28 0 3.46 2.93 5.46 7.98 5.46 4.17 0 7.86-1.53 10.39-4.34 1.23-1.47 1.59-2.23 1.59-3.87l.06-2.99Z" fill="#8c9091" data-color="1"/>
        <path d="M490.38 214.72c-4.23 4.17-8.57 5.99-14.38 5.99-8.45 0-14.26-4.81-14.26-11.8 0-2.35.88-4.75 2.29-6.28 1.82-1.88 3.34-2.93 7.8-5.34-3.46-3.23-4.69-5.46-4.69-8.57 0-4.46 3.82-7.75 8.98-7.75s8.98 3.23 8.98 7.69c0 2.23-1 4.52-2.64 5.93-1.23 1.12-1.88 1.53-5.11 3.4l12.56 11.8c1.47-2.58 2.35-5.11 2.82-8.1h3.58c-.35 3.93-1.41 6.87-3.82 10.51l8.16 7.69h-4.81l-5.46-5.16ZM474.3 199.7c-6.4 2.99-8.92 5.63-8.92 9.27 0 2.41 1.29 4.87 3.35 6.57 1.7 1.35 4.34 2.11 7.4 2.11 4.75 0 8.33-1.59 11.86-5.17l-13.68-12.79Zm3.23-5.58c2.76-1.7 4.11-3.52 4.11-5.69 0-2.52-2.46-4.4-5.69-4.4-3.05 0-5.46 1.94-5.46 4.46 0 1.94 1.06 4.05 2.76 5.63l1.7 1.53z" fill="#8c9091" data-color="1"/>
        <path d="m528.7 207.8-5.52 12.09h-4.34l18.08-39.15h4.99l18.2 39.15h-4.58l-5.46-12.09h-21.36Zm12.45-19.55c-1.06-2.29-1.41-3.35-1.82-5.11-.53 1.94-1 3.11-1.88 5.11l-7.22 16.02h18.19l-7.28-16.02Z" fill="#8c9091" data-color="1"/>
        <path d="M566.61 219.89v-28.7h3.52v3.11c0 .82-.06 1.47-.12 2.7 2.41-4.64 4.93-6.34 9.39-6.34 1.29 0 2.17.12 3.82.53v3.46c-2.06-.41-2.82-.47-3.99-.47-3.58 0-6.75 2.17-8.22 5.63-.53 1.29-.59 1.64-.59 4.17v15.91h-3.82Z" fill="#8c9091" data-color="1"/>
        <path d="M614.09 229.81v-15.73c-3.05 4.75-6.34 6.63-11.62 6.63-8.57 0-14.91-6.4-14.91-15.08s6.51-15.26 15.08-15.26c3.58 0 6.81 1.23 9.04 3.4.94.94 1.47 1.7 2.41 3.4v-5.99h3.7v38.62h-3.7Zm-22.71-24.3c0 6.87 4.81 11.86 11.5 11.86s11.51-4.99 11.51-11.39c0-6.93-5.05-12.27-11.56-12.27s-11.44 4.99-11.44 11.8Z" fill="#8c9091" data-color="1"/>
        <path d="M651.83 219.89v-6.05c-1.35 2.05-2.23 2.99-3.7 3.99-2.35 1.64-5.69 2.58-9.04 2.58-7.34 0-11.04-3.4-11.04-10.15v-19.08h3.82v18.25c0 5.34 2.53 7.75 8.1 7.75 4.75 0 8.86-2.11 10.68-5.46.59-1.12.88-2.52.88-4.34v-16.2h3.76v28.7h-3.46Z" fill="#8c9091" data-color="1"/>
        <path d="M665.33 185.02v-4.29h3.82v4.29zm0 34.87v-28.7h3.82v28.7z" fill="#8c9091" data-color="1"/>
        <path d="M691.33 219.89c-2.17.29-3.17.41-4.46.41-2.64 0-4.46-.82-5.28-2.29-.65-1.17-.82-2.7-.82-7.22v-16.43h-5.05v-3.17h5.05v-8.51h3.76v8.51h6.81v3.17h-6.81v18.72c0 3.17.53 3.93 2.88 3.93 1 0 1.64-.06 3.93-.29v3.17Z" fill="#8c9091" data-color="1"/>
        <path d="M724.84 211.02c-.82 2.58-1.53 3.82-2.99 5.34-2.58 2.7-6.75 4.34-11.03 4.34-8.75 0-14.73-6.1-14.73-15.08s6.1-15.26 15.03-15.26c5.58 0 10.33 2.64 12.8 7.16 1.47 2.64 1.94 4.87 2 9.04h-26.18c.41 3.82 1.41 6.1 3.52 8.04 1.94 1.76 4.75 2.76 7.75 2.76 4.69 0 8.16-2.17 9.98-6.34h3.87Zm-2.82-7.51c-.35-2.52-.82-3.87-1.88-5.34-1.94-2.82-5.4-4.46-9.21-4.46-4.34 0-8.1 2.11-9.86 5.63-.59 1.23-.88 2.23-1.12 4.17z" fill="#8c9091" data-color="1"/>
        <path d="M745.61 219.89c-2.17.29-3.17.41-4.46.41-2.64 0-4.46-.82-5.28-2.29-.65-1.17-.82-2.7-.82-7.22v-16.43H730v-3.17h5.05v-8.51h3.76v8.51h6.81v3.17h-6.81v18.72c0 3.17.53 3.93 2.88 3.93 1 0 1.64-.06 3.93-.29v3.17Z" fill="#8c9091" data-color="1"/>
        <path d="M776.72 219.89v-6.05c-1.35 2.05-2.23 2.99-3.7 3.99-2.35 1.64-5.69 2.58-9.04 2.58-7.34 0-11.03-3.4-11.03-10.15v-19.08h3.82v18.25c0 5.34 2.52 7.75 8.1 7.75 4.76 0 8.86-2.11 10.68-5.46.59-1.12.88-2.52.88-4.34v-16.2h3.76v28.7h-3.46Z" fill="#8c9091" data-color="1"/>
        <path d="M790.22 219.89v-28.7h3.52v3.11c0 .82-.06 1.47-.12 2.7 2.41-4.64 4.93-6.34 9.39-6.34 1.29 0 2.17.12 3.82.53v3.46c-2.06-.41-2.82-.47-3.99-.47-3.58 0-6.75 2.17-8.22 5.63-.53 1.29-.59 1.64-.59 4.17v15.91h-3.82Z" fill="#8c9091" data-color="1"/>
        <path d="M842.28 219.59c-1.7.47-2.47.59-3.46.59-2.46 0-3.76-1.64-3.76-4.87-3.76 4.05-6.93 5.4-12.56 5.4-6.93 0-11.21-3.23-11.21-8.39 0-3.4 1.53-5.75 4.7-7.16 1.47-.65 3.46-1.12 7.16-1.58l5.99-.82c4.52-.65 5.87-1.53 5.87-3.93 0-3.35-2.99-5.11-8.51-5.11-6.69 0-9.74 2-10.21 6.75h-3.82c.47-3.11 1.06-4.64 2.46-6.16 2.41-2.82 5.87-3.93 11.74-3.93 5.22 0 8.57 1.17 10.45 3.76 1.29 1.7 1.53 2.94 1.53 7.4v12.91c0 1.7.59 2.52 1.88 2.52.41 0 .94-.12 1.76-.35v2.99Zm-7.22-13.26c0-1 .06-1.41.12-2.47-1.52 1.06-2.7 1.47-6.69 2.11l-5.34.82c-6.22 1-8.1 2.23-8.1 5.28 0 3.46 2.93 5.46 7.98 5.46 4.17 0 7.87-1.53 10.39-4.34 1.23-1.47 1.58-2.23 1.58-3.87z" fill="#8c9091" data-color="1"/>
        <path d="M979.5 19.16c0 10.51-8.53 19.1-18.99 19.1s-19.1-8.59-19.1-19.1S949.94 0 960.73 0s18.77 8.7 18.77 19.16m-33.79 0c0 8.31 6.66 15.14 14.81 15.14s14.7-6.77 14.7-15.14-6.61-15.19-14.53-15.19c-8.37 0-14.97 6.66-14.97 15.19Zm15.74-10.79c2.31 0 3.63.28 4.9.99 1.87 1.05 2.86 2.81 2.86 4.95 0 2.37-1.16 4.02-3.41 5.12 2.31.99 2.97 2.37 3.08 6.83.11 1.43.28 2.53.55 3.19h-5.28c-.22-.5-.39-1.27-.5-2.81-.22-4.46-.88-5.45-3.85-5.61h-1.76v8.42h-5.56V8.37zm-3.41 9.46h2.26c2.37 0 3.41-.94 3.41-3.08s-.99-3.03-3.19-3.03h-2.48z" fill="#8c9091" data-color="1"/>
    </g>
</svg>
