<?xml version="1.0" encoding="UTF-8"?>
<svg data-bbox="0.013 0 334.787 416.96" viewBox="0 0 334.8 416.96" xmlns="http://www.w3.org/2000/svg" data-type="color">
    <g>
        <path d="M135.65 68.67c-5.67 30.08-30.08 47.52-66.27 47.52-22.89 0-41.64-7.19-52.54-20.49C8.34 85.67 3.98 73.03 3.98 59.3 3.98 23.98 31.23 0 71.34 0c20.71 0 38.37 6.76 49.05 18.53 6.32 7.19 10.03 14.61 12.64 26.38H98.37C94.88 31.18 85.73 23.98 70.9 23.98c-19.62 0-32.7 13.52-32.7 33.57s13.08 34.66 31.83 34.66c15.04 0 26.16-8.94 28.99-23.54h36.62Z" fill="#8c9091" data-color="1"/>
        <path d="M195.16 64.96c.22 16.79 12.21 27.25 30.74 27.25 13.3 0 21.58-4.58 25.72-14.39h38.15c-3.49 9.81-8.07 16.13-16.79 23.33-12.43 10.25-27.03 15.04-46 15.04-22.67 0-40.55-6.1-51.67-17.44-9.81-10.03-15.04-23.98-15.04-39.89C160.28 22.89 185.56 0 225.68 0c27.03 0 47.3 10.03 57.12 28.56 5.67 10.46 7.85 20.71 8.28 36.4zm59.07-21.36c-3.49-14.82-13.08-22.24-28.99-22.24s-25.72 7.41-28.99 22.24h57.99Z" fill="#8c9091" data-color="1"/>
        <path d="M9.22 138.51h34.44v13.08c14.82-12.21 26.16-16.79 41.86-16.79 14.82 0 28.56 5.23 37.06 14.39 8.28 8.72 10.9 17.88 10.9 37.5v59.29H99.04v-56.9c0-10.9-2.18-17.22-7.63-22.02-4.8-4.14-11.55-6.54-18.97-6.54-17.88 0-28.77 11.12-28.77 29.43v56.02H9.22V138.5Z" fill="#8c9091" data-color="1"/>
        <path d="M273.42 151.15c11.77 10.46 17.66 24.2 17.66 42.07 0 33.79-28.34 57.12-69.32 57.12s-69.32-23.11-69.32-58.21 27.69-57.99 69.76-57.99c20.49 0 38.59 6.1 51.23 17Zm-83.93 40.98c0 19.18 13.3 32.7 32.26 32.7s32.26-13.52 32.26-32.05c0-19.62-13.08-33.14-32.04-33.14s-32.48 13.3-32.48 32.48Z" fill="#8c9091" data-color="1"/>
        <path d="M108.51 379.03c-6.83 1.74-9.8 2.18-13.5 2.18-9.16 0-12.16-6.1-8.64-18.09-18.36 15.04-31.61 20.05-52.53 20.05-25.72 0-38.12-11.99-32.49-31.17 3.71-12.64 11.93-21.36 25.24-26.6 6.15-2.4 14.08-4.14 28.32-5.89l23.13-3.05c17.49-2.4 23.46-5.67 26.08-14.61 3.64-12.43-5.55-18.96-26.05-18.96-24.85 0-38.36 7.41-45.28 25.07H18.62c5.13-11.55 8.98-17.22 15.87-22.89 12.01-10.46 26.08-14.61 47.88-14.61 19.4 0 30.55 4.36 34.71 13.95 2.94 6.32 2.47 10.9-2.39 27.47l-14.07 47.96c-1.85 6.32-.57 9.37 4.23 9.37 1.53 0 3.62-.44 6.92-1.31l-3.26 11.12Zm-12.36-49.26c1.09-3.71 1.75-5.23 3.12-9.16-6.82 3.92-11.63 5.45-27.15 7.85l-20.73 3.05c-24.19 3.71-32.51 8.28-35.84 19.62-3.77 12.86 4.95 20.27 23.7 20.27 15.48 0 30.87-5.67 43.32-16.13 6.18-5.45 8.32-8.28 10.11-14.39l3.48-11.12Z" fill="#8c9091" data-color="1"/>
        <path d="m112.32 380.12 31.27-106.6h13.08l-3.39 11.55c-.9 3.05-1.82 5.45-3.38 10.03 13.99-17.22 25.22-23.54 41.79-23.54 4.8 0 7.94.44 13.59 1.96l-3.77 12.86c-7.18-1.53-9.95-1.74-14.31-1.74-13.3 0-27.44 8.07-36.66 20.93-3.37 4.8-3.97 6.1-6.72 15.48l-17.33 59.08h-14.17Z" fill="#8c9091" data-color="1"/>
        <path d="m256.95 416.96 17.14-58.42c-16.51 17.66-30.77 24.63-50.39 24.63-31.83 0-48.4-23.76-38.94-56.02s40.82-56.68 72.65-56.68c13.3 0 23.94 4.58 29.86 12.64 2.46 3.49 3.6 6.32 5.23 12.64l6.52-22.24h13.73l-42.08 143.44h-13.73Zm-57.89-90.25c-7.48 25.51 4.96 44.03 29.81 44.03s48.16-18.53 55.13-42.29c7.55-25.72-5.38-45.56-29.58-45.56s-47.94 18.53-55.36 43.82" fill="#8c9091" data-color="1"/>
        <path d="M334.8 237.86c0 10.51-8.53 19.1-18.99 19.1s-19.1-8.59-19.1-19.1 8.53-19.16 19.32-19.16 18.77 8.7 18.77 19.16m-33.8 0c0 8.31 6.66 15.14 14.81 15.14s14.7-6.77 14.7-15.14-6.61-15.19-14.53-15.19c-8.37 0-14.97 6.66-14.97 15.19Zm15.75-10.79c2.31 0 3.63.28 4.9.99 1.87 1.05 2.86 2.81 2.86 4.95 0 2.37-1.16 4.02-3.41 5.12 2.31.99 2.97 2.37 3.08 6.83.11 1.43.28 2.53.55 3.19h-5.28c-.22-.5-.39-1.27-.5-2.81-.22-4.46-.88-5.45-3.85-5.61h-1.76v8.42h-5.56v-21.08zm-3.42 9.47h2.26c2.37 0 3.41-.94 3.41-3.08s-.99-3.03-3.19-3.03h-2.48z" fill="#8c9091" data-color="1"/>
    </g>
</svg>
