<?xml version="1.0" encoding="UTF-8"?>
<svg data-bbox="0 0 973.53 184.41" viewBox="0 0 973.53 184.41" xmlns="http://www.w3.org/2000/svg" data-type="color">
    <g>
        <path d="M136.88 101.22c-5.89 30.21-31.27 47.73-68.89 47.73-23.79 0-43.28-7.22-54.62-20.58C4.53 118.29 0 105.6 0 91.8c0-35.47 28.33-59.55 70.03-59.55 21.53 0 39.88 6.79 50.99 18.61 6.57 7.22 10.42 14.67 13.14 26.49H98.13C94.5 63.56 84.99 56.33 69.58 56.33c-20.4 0-33.99 13.57-33.99 33.72s13.6 34.81 33.09 34.81c15.64 0 27.19-8.98 30.14-23.65h38.07Z" fill="#8c9091" data-color="1"/>
        <path d="M182.65 97.91c.23 16.96 12.69 27.54 31.95 27.54 13.82 0 22.43-4.63 26.74-14.54H281c-3.63 9.91-8.38 16.3-17.45 23.57-12.92 10.35-28.1 15.2-47.82 15.2-23.57 0-42.15-6.17-53.71-17.63-10.2-10.13-15.64-24.24-15.64-40.32 0-36.35 26.29-59.49 67.99-59.49 28.1 0 49.18 10.13 59.37 28.86 5.89 10.57 8.16 20.93 8.61 36.79h-99.71Zm61.41-21.59c-3.63-14.98-13.6-22.47-30.14-22.47s-26.74 7.49-30.14 22.47z" fill="#8c9091" data-color="1"/>
        <path d="M293.27 36.79h35.81v13.6c15.41-12.69 27.19-17.45 43.51-17.45 15.41 0 29.69 5.44 38.52 14.96 8.61 9.06 11.33 18.58 11.33 38.98v61.64h-35.81V89.37c0-11.33-2.27-17.9-7.93-22.89-4.99-4.31-12.01-6.8-19.72-6.8-18.58 0-29.91 11.56-29.91 30.59v58.24h-35.81V36.79Z" fill="#8c9091" data-color="1"/>
        <path d="M556.92 49.33c12.24 10.51 18.36 24.3 18.36 42.25 0 33.93-29.46 57.36-72.06 57.36s-72.07-23.21-72.07-58.46 28.78-58.24 72.52-58.24c21.3 0 40.11 6.13 53.26 17.08Zm-87.25 41.16c0 19.27 13.82 32.84 33.54 32.84s33.54-13.57 33.54-32.18c0-19.7-13.6-33.28-33.31-33.28s-33.77 13.35-33.77 32.62" fill="#8c9091" data-color="1"/>
        <path d="M703.19 144.58c-7.16 1.8-10.28 2.25-14.22 2.24-9.71-.02-13.2-6.38-10.06-18.85-18.74 15.62-32.54 20.81-54.74 20.77-27.29-.05-41.03-12.55-36-32.51 3.31-13.15 11.61-22.21 25.47-27.63 6.41-2.49 14.73-4.28 29.76-6.07l24.39-3.13c18.44-2.46 24.61-5.85 26.95-15.15 3.26-12.93-6.82-19.75-28.56-19.79-26.36-.05-40.33 7.64-46.81 26l-15.03-.03c4.88-12.02 8.68-17.91 15.71-23.79 12.22-10.87 26.95-15.15 50.08-15.11 20.58.04 32.62 4.6 37.51 14.59 3.43 6.59 3.15 11.35-1.19 28.59l-12.57 49.89c-1.66 6.58-.14 9.76 4.94 9.76 1.62 0 3.81-.45 7.28-1.35l-2.91 11.56Zm-15.53-51.3c.97-3.85 1.6-5.44 2.86-9.52-7.04 4.07-12.07 5.65-28.42 8.11l-21.84 3.14c-25.49 3.81-34.09 8.56-37.06 20.35-3.37 13.38 6.25 21.11 26.14 21.15 16.42.03 32.47-5.84 45.16-16.7 6.28-5.66 8.42-8.6 10.02-14.96z" fill="#8c9091" data-color="1"/>
        <path d="M714.46 145.74 742.4 34.85l13.87.03-3.03 12.02c-.8 3.17-1.66 5.67-3.09 10.43 14-17.9 25.6-24.45 43.17-24.42 5.09 0 8.44.47 14.52 2.07l-3.37 13.38c-7.69-1.6-10.64-1.84-15.27-1.84-14.11-.03-28.71 8.34-37.86 21.71-3.34 4.99-3.91 6.35-6.37 16.1l-15.49 61.45-15.03-.03Z" fill="#8c9091" data-color="1"/>
        <path d="m873.97 184.38 15.31-60.77c-16.65 18.35-31.43 25.58-52.24 25.54-33.76-.06-52.51-24.83-44.05-58.39s40.52-58.91 74.29-58.85c14.11.03 25.63 4.81 32.3 13.22 2.79 3.64 4.12 6.59 6.17 13.17l5.83-23.13 14.57.03-37.6 149.21-14.57-.03Zm-65.84-94.05c-6.69 26.53 7.42 45.84 33.78 45.89 25.44.05 50.18-19.19 56.41-43.91 6.74-26.76-7.95-47.43-33.61-47.48-26.13-.05-49.95 19.19-56.58 45.5" fill="#8c9091" data-color="1"/>
        <path d="M973.53 19.16c0 10.51-8.53 19.1-18.99 19.1s-19.1-8.59-19.1-19.1S943.97 0 954.76 0s18.77 8.7 18.77 19.16m-33.8 0c0 8.31 6.66 15.14 14.81 15.14s14.7-6.77 14.7-15.14-6.61-15.19-14.53-15.19c-8.37 0-14.97 6.66-14.97 15.19Zm15.74-10.79c2.31 0 3.63.28 4.9.99 1.87 1.05 2.86 2.81 2.86 4.95 0 2.37-1.16 4.02-3.41 5.12 2.31.99 2.97 2.37 3.08 6.83.11 1.43.28 2.53.55 3.19h-5.28c-.22-.5-.39-1.27-.5-2.81-.22-4.46-.88-5.45-3.85-5.61h-1.76v8.42h-5.56V8.37zm-3.41 9.46h2.26c2.37 0 3.41-.94 3.41-3.08s-.99-3.03-3.19-3.03h-2.48z" fill="#8c9091" data-color="1"/>
    </g>
</svg>
